<svg width="100" height="100" viewBox="0 0 100 100" fill="none" xmlns="http://www.w3.org/2000/svg">
  <rect width="100" height="100" rx="20" fill="#1e1b4b"/>
  <path d="M30 30H70V75C70 77.7614 67.7614 80 65 80H35C32.2386 80 30 77.7614 30 75V30Z" fill="#6366f1" opacity="0.7"/>
  <path d="M35 20H65C67.7614 20 70 22.2386 70 25V35H30V25C30 22.2386 32.2386 20 35 20Z" fill="#4338ca"/>
  <circle cx="40" cy="50" r="8" fill="#2dd4bf"/>
  <rect x="55" y="45" width="15" height="15" rx="2" fill="#f43f5e"/>
  <path d="M35 65H45L48 70H32L35 65Z" fill="#facc15"/>
  <path d="M55 68L65 65V70L55 73V68Z" fill="#10b981"/>
  <path d="M38 27H62M38 27C38 25.8954 38.8954 25 40 25C41.1046 25 42 25.8954 42 27M38 27V33M62 27C62 25.8954 61.1046 25 60 25C58.8954 25 58 25.8954 58 27M62 27V33" stroke="white" stroke-width="2"/>
</svg>
